<?xml version="1.0" standalone="no"?>
<svg viewBox="0 0 200 200" xmlns="http://www.w3.org/2000/svg">
  <path fill="#000000" d="M37,-57.6C50.7,-48.8,66.4,-43.1,75.9,-31.9C85.4,-20.6,88.7,-3.7,87.4,13.3C86,30.2,80,47.1,68.7,58.9C57.5,70.6,41,77.2,25.1,78.8C9.1,80.5,-6.3,77.3,-21.8,73.2C-37.4,69.2,-53,64.3,-62.8,53.9C-72.7,43.5,-76.8,27.6,-78.4,11.7C-80,-4.2,-79.1,-19.9,-74,-34.9C-68.9,-49.8,-59.5,-63.9,-46.5,-73C-33.4,-82.1,-16.7,-86.1,-2.5,-82.2C11.7,-78.3,23.3,-66.3,37,-57.6Z" transform="translate(100 100)" />
</svg>
