<svg width="191" height="4" viewBox="0 0 191 4" fill="none" xmlns="http://www.w3.org/2000/svg">
<g clip-path="url(#clip0_3271_2)">
<path d="M84.1259 3.66701C87.4169 3.70701 90.7089 3.76501 94.0999 3.80401C102.977 3.92201 179.978 4.19501 188.357 3.39401C191.349 3.10001 189.753 2.10201 186.661 2.12101H185.165C185.664 1.76901 184.966 1.53401 182.971 1.41701C184.567 1.41701 186.262 1.41701 187.858 1.43701C192.047 1.45601 192.047 0.0870068 187.858 0.0670068C148.859 -0.0899932 42.1339 0.0270068 3.23492 0.438007C-0.256076 0.478007 -1.45308 1.65201 2.33692 1.78801C8.32192 2.00401 14.3069 2.00401 20.2909 2.20001C19.5929 2.29701 19.1939 2.45401 18.9939 2.61001C18.5949 2.61001 18.1959 2.63001 17.8969 2.63001C13.7069 2.70801 13.6079 4.02001 17.8969 4.00001C39.9399 3.88201 62.0829 3.76501 84.1259 3.66701Z" fill="white"/>
</g>
<defs>
<clipPath id="clip0_3271_2">
<rect width="191" height="4" fill="white"/>
</clipPath>
</defs>
</svg>
