<svg width="2837" height="549" viewBox="0 0 2837 549" fill="none" xmlns="http://www.w3.org/2000/svg">
<g clip-path="url(#clip0_3347_839)">
<path d="M413.5 185C413.5 43.2784 392 143 392 376C392 482.524 674.631 505.923 757 520.5C952.857 555.263 802.5 186.5 901 84C1007 -106 1342 -19 1471 110.5C1555 253.5 1335 446.5 1570.5 458.5C1813 238 2014.5 54 2324.5 26C2441.5 26 2612 77.5001 2645 179.5C2678 281.5 2587.5 352 2523.5 376" stroke="#DC5F00" stroke-opacity="0.5" stroke-width="4" stroke-dasharray="20 20"/>
<path d="M2689.5 301.151L2573.67 362.401L2594.17 233" fill="#FFAF71"/>
</g>
<defs>
<clipPath id="clip0_3347_839">
<rect width="2837" height="549" fill="white"/>
</clipPath>
</defs>
</svg>
