<svg width="2837" height="549" viewBox="0 0 2837 549" fill="none" xmlns="http://www.w3.org/2000/svg">
<path d="M302 179C302 37.2785 646 278.779 505 396C394 507 674.631 505.922 757 520.5C952.857 555.263 842 123.5 990.5 61.0002C1274 -6.49982 1214 211.5 1514.5 228.5M1514.5 228.5C1665 289 1825 153.5 1706 61.0002C1706 61.0002 1514.5 -11.5 1514.5 228.5ZM1514.5 228.5C1352 332.5 1335 488 1570.5 500C1813 279.5 2098.5 50 2408.5 22C2525.5 22 2688 75.5 2721 177.5C2754 279.5 2644.27 361.038 2620 411.5" stroke="#DC5F00" stroke-opacity="0.5" stroke-width="4" stroke-dasharray="20 20"/>
<path d="M2747.34 336.119L2618.51 419.525L2629.08 266.441" fill="#FFAF71"/>
</svg>
