<svg width="2837" height="549" viewBox="0 0 2837 549" fill="none" xmlns="http://www.w3.org/2000/svg">
<g clip-path="url(#clip0_3347_839)">
<path d="M302 179C302 37.2784 646 278.779 505 396C394 507 674.631 505.923 757 520.5C952.857 555.263 802.5 186.5 901 84C1007 -106 1342 -19 1471 110.5C1555 253.5 1335 446.5 1570.5 458.5C1813 238 2098.5 50 2408.5 22C2525.5 22 2688 75.4999 2721 177.5C2754 279.5 2644.27 361.038 2620 411.5" stroke="#DC5F00" stroke-opacity="0.5" stroke-width="4" stroke-dasharray="20 20"/>
<path d="M2747.34 336.119L2618.51 419.525L2629.08 266.441" fill="#FFAF71"/>
</g>
<defs>
<clipPath id="clip0_3347_839">
<rect width="2837" height="549" fill="white"/>
</clipPath>
</defs>
</svg>
